<svg xmlns="http://www.w3.org/2000/svg" width="19.583" height="21.073" viewBox="0 0 19.583 21.073"><defs><style>.a{fill:#fff;}</style></defs><g transform="translate(-17.2 0)"><path class="a" d="M22.782,13.875H34.393a2.4,2.4,0,0,0,2.391-2.391V6.547a.055.055,0,0,0,0-.026c0-.009,0-.022,0-.03s0-.017,0-.026a.276.276,0,0,1-.009-.03c0-.009,0-.017-.009-.026s0-.017-.009-.026a.211.211,0,0,1-.013-.03.1.1,0,0,0-.013-.022L36.706,6.3c0-.009-.009-.013-.013-.022s-.013-.017-.017-.026a.076.076,0,0,0-.017-.022c0-.009-.013-.013-.017-.022s-.013-.013-.017-.022-.013-.013-.017-.017l-.022-.022c-.009,0-.013-.013-.022-.017s-.017-.013-.026-.017l-.022-.013a.091.091,0,0,1-.026-.017l-.026-.013-.026-.013-.026-.013c-.009,0-.017,0-.026-.009a.08.08,0,0,0-.03-.009.187.187,0,0,1-.022,0,.1.1,0,0,0-.035,0s-.009,0-.017,0L21.565,3.988V1.935a.266.266,0,0,0,0-.061.033.033,0,0,0,0-.017c0-.013,0-.026,0-.039s0-.022-.009-.035,0-.013,0-.022l-.013-.039s0-.013,0-.017a.13.13,0,0,0-.017-.035s0-.013-.009-.017a.091.091,0,0,0-.017-.026c0-.009-.009-.013-.013-.022s-.009-.013-.013-.022-.013-.017-.017-.026l-.013-.013L21.4,1.519l-.013-.013a.188.188,0,0,0-.03-.026s-.013-.009-.017-.013-.017-.013-.026-.022a.4.4,0,0,0-.035-.022s-.009,0-.013-.009l-.056-.026L18.013.046a.585.585,0,0,0-.455,1.078l2.832,1.2V15.131A2.393,2.393,0,0,0,22.474,17.5a2.359,2.359,0,1,0,4.383,1.213,2.316,2.316,0,0,0-.325-1.191H31.79a2.327,2.327,0,0,0-.325,1.191,2.36,2.36,0,1,0,2.36-2.36H22.782a1.223,1.223,0,0,1-1.221-1.221V13.546A2.418,2.418,0,0,0,22.782,13.875Zm2.91,4.833A1.191,1.191,0,1,1,24.5,17.518,1.193,1.193,0,0,1,25.692,18.709Zm9.329,0a1.191,1.191,0,1,1-1.191-1.191A1.193,1.193,0,0,1,35.021,18.709Zm-.628-6H22.782a1.223,1.223,0,0,1-1.221-1.221V5.166L35.614,7.1V11.48A1.224,1.224,0,0,1,34.393,12.706Z"/></g></svg>